<svg width="75" height="75" viewBox="0 0 75 75" fill="none" xmlns="http://www.w3.org/2000/svg">
<path fill-rule="evenodd" clip-rule="evenodd" d="M35.2901 21.4512H12.4492V26.0193H35.2901V21.4512ZM62.6992 21.4512H39.8583V26.0193H62.6992V21.4512ZM44.4265 39.7241H62.6992V44.2923H39.8583V39.7243V39.7241V26.0198H44.4265V39.7241ZM62.6989 30.5876H48.9944V35.1558H62.6989V30.5876ZM12.4492 39.7241H35.2901V44.2923H12.4492V39.7241ZM35.2901 30.5876H12.4492V35.1558H35.2901V30.5876ZM62.6992 35.1559H58.131V39.7241H62.6992V35.1559Z" fill="white"/>
<path d="M39.8574 53.3596H43.8874V52.4769H40.8896V48.9273H39.8574V53.3596Z" fill="white"/>
<path d="M47.2801 48.9273L45.0611 53.3596H46.1613L46.6311 52.409H49.0663L49.5361 53.3596H50.6548L48.4483 48.9273H47.2801ZM47.8549 49.9397L48.6522 51.5571H47.0514L47.8549 49.9397Z" fill="white"/>
<path d="M52.0522 53.3596H55.1365C56.0883 53.3596 56.6755 52.8966 56.6755 52.1127C56.6755 51.5818 56.3418 51.2114 55.9153 51.057C56.2058 50.9336 56.5457 50.6311 56.5457 50.1187C56.5457 49.3471 55.9956 48.9273 55.0252 48.9273H52.0522V53.3596ZM53.0411 50.7052V49.773H54.9201C55.3343 49.773 55.5691 49.9273 55.5691 50.236C55.5691 50.5447 55.3343 50.7052 54.9201 50.7052H53.0411ZM53.0411 51.5077H55.0499C55.4455 51.5077 55.6804 51.7114 55.6804 52.0077C55.6804 52.304 55.4455 52.5077 55.0499 52.5077H53.0411V51.5077Z" fill="white"/>
<path d="M57.8586 52.4954C58.3037 53.0633 59.3977 53.4275 60.4175 53.4275C61.7217 53.4275 62.6983 52.9399 62.6983 51.946C62.6983 50.9768 61.7464 50.7978 60.5844 50.6681C59.4904 50.5447 59.1813 50.4829 59.1813 50.1928C59.1813 49.9273 59.5337 49.7174 60.2321 49.7174C60.9676 49.7174 61.6104 49.9582 61.9628 50.3656L62.6117 49.6804C62.1914 49.1927 61.3014 48.8594 60.3001 48.8594C59.0145 48.8594 58.1677 49.4211 58.1677 50.3039C58.1677 51.1928 59.0206 51.4089 60.0776 51.5262C61.2643 51.6558 61.629 51.6867 61.629 52.0571C61.629 52.3781 61.1469 52.5633 60.4608 52.5633C59.818 52.5633 59.0268 52.3596 58.5076 51.7484L57.8586 52.4954Z" fill="white"/>
</svg>
